<?xml version="1.0" standalone="no"?>
<!DOCTYPE svg PUBLIC "-//W3C//DTD SVG 20010904//EN"
 "http://www.w3.org/TR/2001/REC-SVG-20010904/DTD/svg10.dtd">
<svg version="1.0" xmlns="http://www.w3.org/2000/svg"
 width="512.000000pt" height="512.000000pt" viewBox="0 0 512.000000 512.000000"
 preserveAspectRatio="xMidYMid meet">
<metadata>
Created by potrace 1.14, written by Peter Selinger 2001-2017
</metadata>
<g transform="translate(0.000000,512.000000) scale(0.100000,-0.100000)"
fill="#000000" stroke="none">
<path d="M4700 4957 c-3 -2 -36 -7 -75 -10 -257 -22 -623 -107 -852 -198 -150
-59 -314 -151 -423 -237 -152 -121 -295 -306 -359 -464 -20 -49 -27 -58 -50
-59 -14 -1 -35 -3 -46 -4 -11 -1 -49 -5 -85 -9 -87 -9 -115 -14 -249 -37 -63
-11 -126 -21 -140 -23 -14 -2 -68 -13 -119 -25 -51 -12 -101 -23 -110 -24 -18
-4 -25 -6 -237 -63 -325 -89 -648 -234 -880 -398 -256 -180 -479 -439 -595
-690 -32 -68 -80 -201 -80 -219 0 -11 70 -4 310 28 39 6 268 44 297 50 402 82
773 203 1038 338 221 112 365 216 531 382 l122 122 16 -58 c9 -32 45 -117 81
-189 191 -386 269 -771 233 -1150 -7 -74 -50 -302 -83 -440 -23 -95 -129 -591
-141 -660 -3 -14 -7 -32 -9 -40 -2 -8 -7 -30 -10 -47 -3 -18 -12 -61 -19 -95
-8 -35 -17 -80 -20 -100 -3 -21 -10 -57 -15 -80 -19 -85 -33 -184 -32 -232 2
-111 115 -178 217 -130 43 20 84 88 84 137 0 30 28 247 45 347 2 14 7 43 10
65 4 22 15 92 25 155 11 63 22 132 26 154 3 21 7 48 10 59 2 12 6 39 9 62 5
34 40 236 61 355 4 19 8 44 10 55 1 11 5 29 7 40 44 203 60 444 44 660 -22
286 -118 619 -249 864 -22 42 -58 108 -78 146 -50 92 -72 158 -74 225 -3 77 6
113 63 232 27 56 55 122 61 146 7 23 18 42 24 43 6 0 20 2 31 4 11 2 61 8 110
15 50 6 137 20 195 31 58 11 116 23 130 25 48 9 146 36 245 66 431 131 709
324 903 626 49 76 104 206 100 234 -2 11 -5 18 -8 15z"/>
</g>
</svg>
